<svg width="15" height="15" viewBox="0 0 15 15" fill="none" xmlns="http://www.w3.org/2000/svg">
<path d="M7.5 15C7.26389 15 7.06597 14.9201 6.90625 14.7604C6.74653 14.6007 6.66667 14.4028 6.66667 14.1667V8.33333H0.833333C0.597222 8.33333 0.399306 8.25347 0.239583 8.09375C0.0798611 7.93403 0 7.73611 0 7.5C0 7.26389 0.0798611 7.06597 0.239583 6.90625C0.399306 6.74653 0.597222 6.66667 0.833333 6.66667H6.66667V0.833333C6.66667 0.597222 6.74653 0.399306 6.90625 0.239583C7.06597 0.0798611 7.26389 0 7.5 0C7.73611 0 7.93403 0.0798611 8.09375 0.239583C8.25347 0.399306 8.33333 0.597222 8.33333 0.833333V6.66667H14.1667C14.4028 6.66667 14.6007 6.74653 14.7604 6.90625C14.9201 7.06597 15 7.26389 15 7.5C15 7.73611 14.9201 7.93403 14.7604 8.09375C14.6007 8.25347 14.4028 8.33333 14.1667 8.33333H8.33333V14.1667C8.33333 14.4028 8.25347 14.6007 8.09375 14.7604C7.93403 14.9201 7.73611 15 7.5 15Z" fill="#E12B17"/>
</svg>
