<svg width="19" height="19" viewBox="0 0 19 19" fill="none" xmlns="http://www.w3.org/2000/svg">
<path d="M9.3984 18.5477C9.11036 18.5477 8.86892 18.4503 8.67408 18.2554C8.47923 18.0606 8.3818 17.8192 8.3818 17.5311V10.4149H1.26562C0.977585 10.4149 0.736143 10.3175 0.541295 10.1227C0.346447 9.92782 0.249023 9.68637 0.249023 9.39834C0.249023 9.1103 0.346447 8.86886 0.541295 8.67401C0.736143 8.47917 0.977585 8.38174 1.26562 8.38174H8.3818V1.26556C8.3818 0.977524 8.47923 0.736082 8.67408 0.541234C8.86892 0.346386 9.11036 0.248962 9.3984 0.248962C9.68644 0.248962 9.92788 0.346386 10.1227 0.541234C10.3176 0.736082 10.415 0.977524 10.415 1.26556V8.38174H17.5312C17.8192 8.38174 18.0607 8.47917 18.2555 8.67401C18.4504 8.86886 18.5478 9.1103 18.5478 9.39834C18.5478 9.68637 18.4504 9.92782 18.2555 10.1227C18.0607 10.3175 17.8192 10.4149 17.5312 10.4149H10.415V17.5311C10.415 17.8192 10.3176 18.0606 10.1227 18.2554C9.92788 18.4503 9.68644 18.5477 9.3984 18.5477Z" fill="white"/>
</svg>
