<svg width="10" height="17" viewBox="0 0 10 17" fill="none" xmlns="http://www.w3.org/2000/svg">
<path d="M7.40542 8.50541L0.82491 1.92491C0.601083 1.70108 0.4929 1.43622 0.500361 1.13032C0.507822 0.824428 0.623466 0.559567 0.847292 0.33574C1.07112 0.111913 1.33598 0 1.64188 0C1.94777 0 2.21264 0.111913 2.43646 0.33574L9.30794 7.2296C9.487 7.40866 9.6213 7.61011 9.71083 7.83393C9.80036 8.05776 9.84513 8.28159 9.84513 8.50541C9.84513 8.72924 9.80036 8.95307 9.71083 9.1769C9.6213 9.40072 9.487 9.60217 9.30794 9.78123L2.41408 16.6751C2.19025 16.8989 1.92912 17.0071 1.63069 16.9996C1.33225 16.9922 1.07112 16.8765 0.847292 16.6527C0.623466 16.4289 0.511552 16.164 0.511552 15.8581C0.511552 15.5522 0.623466 15.2874 0.847292 15.0635L7.40542 8.50541Z" fill="#E12B17"/>
</svg>
