<svg width="8" height="13" viewBox="0 0 8 13" fill="none" xmlns="http://www.w3.org/2000/svg">
<path d="M5.43004 6.50437L0.494659 1.56899C0.326789 1.40112 0.245652 1.20247 0.251247 0.973049C0.256843 0.743626 0.343576 0.54498 0.511446 0.37711C0.679316 0.20924 0.877962 0.125305 1.10738 0.125305C1.33681 0.125305 1.53545 0.20924 1.70332 0.37711L6.85693 5.54751C6.99123 5.6818 7.09195 5.83289 7.1591 6.00076C7.22625 6.16863 7.25982 6.3365 7.25982 6.50437C7.25982 6.67224 7.22625 6.84011 7.1591 7.00798C7.09195 7.17585 6.99123 7.32693 6.85693 7.46123L1.68654 12.6316C1.51867 12.7995 1.32282 12.8806 1.09899 12.875C0.875164 12.8694 0.679316 12.7827 0.511446 12.6148C0.343576 12.447 0.259641 12.2483 0.259641 12.0189C0.259641 11.7895 0.343576 11.5908 0.511446 11.423L5.43004 6.50437Z" fill="white"/>
</svg>
