<svg width="10" height="17" viewBox="0 0 10 17" fill="none" xmlns="http://www.w3.org/2000/svg">
<path d="M2.59458 8.50541L9.17509 1.92491C9.39892 1.70108 9.5071 1.43622 9.49964 1.13032C9.49218 0.824428 9.37653 0.559567 9.15271 0.33574C8.92888 0.111913 8.66402 0 8.35812 0C8.05223 0 7.78736 0.111913 7.56354 0.33574L0.692058 7.2296C0.512996 7.40866 0.3787 7.61011 0.289169 7.83393C0.199638 8.05776 0.154874 8.28159 0.154874 8.50541C0.154874 8.72924 0.199638 8.95307 0.289169 9.1769C0.3787 9.40072 0.512996 9.60217 0.692058 9.78123L7.58592 16.6751C7.80975 16.8989 8.07088 17.0071 8.36931 16.9996C8.66775 16.9922 8.92888 16.8765 9.15271 16.6527C9.37653 16.4289 9.48845 16.164 9.48845 15.8581C9.48845 15.5522 9.37653 15.2874 9.15271 15.0635L2.59458 8.50541Z" fill="black"/>
</svg>
