<svg width="18" height="18" viewBox="0 0 18 18" fill="none" xmlns="http://www.w3.org/2000/svg">
<path d="M16.2875 17.25C14.3778 17.25 12.491 16.8337 10.6271 16.001C8.7632 15.1684 7.06736 13.9882 5.53958 12.4604C4.01181 10.9326 2.8316 9.23681 1.99896 7.37292C1.16632 5.50903 0.75 3.62222 0.75 1.7125C0.75 1.4375 0.841667 1.20833 1.025 1.025C1.20833 0.841667 1.4375 0.75 1.7125 0.75H5.425C5.63889 0.75 5.82986 0.822569 5.99792 0.967708C6.16597 1.11285 6.26528 1.28472 6.29583 1.48333L6.89167 4.69167C6.92222 4.93611 6.91458 5.14236 6.86875 5.31042C6.82292 5.47847 6.73889 5.62361 6.61667 5.74583L4.39375 7.99167C4.69931 8.55694 5.06215 9.10313 5.48229 9.63021C5.90243 10.1573 6.36458 10.6653 6.86875 11.1542C7.34236 11.6278 7.83889 12.067 8.35833 12.4719C8.87778 12.8767 9.42778 13.2472 10.0083 13.5833L12.1625 11.4292C12.3 11.2917 12.4795 11.1885 12.701 11.1198C12.9226 11.051 13.1403 11.0319 13.3542 11.0625L16.5167 11.7042C16.7306 11.7653 16.9062 11.876 17.0438 12.0365C17.1812 12.1969 17.25 12.3764 17.25 12.575V16.2875C17.25 16.5625 17.1583 16.7917 16.975 16.975C16.7917 17.1583 16.5625 17.25 16.2875 17.25ZM3.52292 6.25L5.03542 4.7375L4.64583 2.58333H2.60625C2.68264 3.20972 2.78958 3.82847 2.92708 4.43958C3.06458 5.05069 3.26319 5.65417 3.52292 6.25ZM11.7271 14.4542C12.3229 14.7139 12.9302 14.9201 13.549 15.0729C14.1677 15.2257 14.7903 15.325 15.4167 15.3708V13.3542L13.2625 12.9188L11.7271 14.4542Z" fill="#E12B17"/>
</svg>
