<svg width="14" height="15" viewBox="0 0 14 15" fill="none" xmlns="http://www.w3.org/2000/svg">
<path d="M6.9998 8.89999L2.0998 13.8C1.91647 13.9833 1.68314 14.075 1.3998 14.075C1.11647 14.075 0.883138 13.9833 0.699805 13.8C0.516471 13.6167 0.424805 13.3833 0.424805 13.1C0.424805 12.8167 0.516471 12.5833 0.699805 12.4L5.5998 7.49999L0.699805 2.59999C0.516471 2.41665 0.424805 2.18332 0.424805 1.89999C0.424805 1.61665 0.516471 1.38332 0.699805 1.19999C0.883138 1.01665 1.11647 0.924988 1.3998 0.924988C1.68314 0.924988 1.91647 1.01665 2.0998 1.19999L6.9998 6.09999L11.8998 1.19999C12.0831 1.01665 12.3165 0.924988 12.5998 0.924988C12.8831 0.924988 13.1165 1.01665 13.2998 1.19999C13.4831 1.38332 13.5748 1.61665 13.5748 1.89999C13.5748 2.18332 13.4831 2.41665 13.2998 2.59999L8.3998 7.49999L13.2998 12.4C13.4831 12.5833 13.5748 12.8167 13.5748 13.1C13.5748 13.3833 13.4831 13.6167 13.2998 13.8C13.1165 13.9833 12.8831 14.075 12.5998 14.075C12.3165 14.075 12.0831 13.9833 11.8998 13.8L6.9998 8.89999Z" fill="#E12B17"/>
</svg>
