<svg width="16" height="18" viewBox="0 0 16 18" fill="none" xmlns="http://www.w3.org/2000/svg">
<path d="M3.41699 17.0467C2.91283 17.0467 2.48123 16.8672 2.1222 16.5082C1.76317 16.1491 1.58366 15.7175 1.58366 15.2134V3.29669C1.32394 3.29669 1.10623 3.20884 0.930534 3.03315C0.754839 2.85746 0.666992 2.63975 0.666992 2.38003C0.666992 2.1203 0.754839 1.90259 0.930534 1.7269C1.10623 1.55121 1.32394 1.46336 1.58366 1.46336H5.25033C5.25033 1.20364 5.33817 0.985928 5.51387 0.810234C5.68956 0.634539 5.90727 0.546692 6.16699 0.546692H9.83366C10.0934 0.546692 10.3111 0.634539 10.4868 0.810234C10.6625 0.985928 10.7503 1.20364 10.7503 1.46336H14.417C14.6767 1.46336 14.8944 1.55121 15.0701 1.7269C15.2458 1.90259 15.3337 2.1203 15.3337 2.38003C15.3337 2.63975 15.2458 2.85746 15.0701 3.03315C14.8944 3.20884 14.6767 3.29669 14.417 3.29669V15.2134C14.417 15.7175 14.2375 16.1491 13.8785 16.5082C13.5194 16.8672 13.0878 17.0467 12.5837 17.0467H3.41699ZM12.5837 3.29669H3.41699V15.2134H12.5837V3.29669ZM6.16699 13.38C6.42671 13.38 6.64442 13.2922 6.82012 13.1165C6.99581 12.9408 7.08366 12.7231 7.08366 12.4634V6.04669C7.08366 5.78697 6.99581 5.56926 6.82012 5.39357C6.64442 5.21787 6.42671 5.13003 6.16699 5.13003C5.90727 5.13003 5.68956 5.21787 5.51387 5.39357C5.33817 5.56926 5.25033 5.78697 5.25033 6.04669V12.4634C5.25033 12.7231 5.33817 12.9408 5.51387 13.1165C5.68956 13.2922 5.90727 13.38 6.16699 13.38ZM9.83366 13.38C10.0934 13.38 10.3111 13.2922 10.4868 13.1165C10.6625 12.9408 10.7503 12.7231 10.7503 12.4634V6.04669C10.7503 5.78697 10.6625 5.56926 10.4868 5.39357C10.3111 5.21787 10.0934 5.13003 9.83366 5.13003C9.57394 5.13003 9.35623 5.21787 9.18053 5.39357C9.00484 5.56926 8.91699 5.78697 8.91699 6.04669V12.4634C8.91699 12.7231 9.00484 12.9408 9.18053 13.1165C9.35623 13.2922 9.57394 13.38 9.83366 13.38Z" fill="#E12B17"/>
</svg>
