<svg width="14" height="20" viewBox="0 0 14 20" fill="none" xmlns="http://www.w3.org/2000/svg">
<path d="M7.00065 19.1667C5.38121 19.1667 4.05968 18.9108 3.03607 18.399C2.01246 17.8872 1.50065 17.2264 1.50065 16.4167C1.50065 16.1264 1.56558 15.8591 1.69544 15.6146C1.8253 15.3702 2.0201 15.141 2.27982 14.9271C2.49371 14.7743 2.72669 14.7132 2.97878 14.7438C3.23086 14.7743 3.43329 14.8966 3.58607 15.1105C3.73885 15.3243 3.79614 15.5573 3.75794 15.8094C3.71975 16.0615 3.59371 16.2639 3.37982 16.4167C3.57843 16.6612 4.03676 16.875 4.75482 17.0584C5.47287 17.2417 6.22148 17.3334 7.00065 17.3334C7.77982 17.3334 8.52843 17.2417 9.24648 17.0584C9.96454 16.875 10.4229 16.6612 10.6215 16.4167C10.4076 16.2639 10.2816 16.0615 10.2434 15.8094C10.2052 15.5573 10.2625 15.3243 10.4152 15.1105C10.568 14.8966 10.7704 14.7743 11.0225 14.7438C11.2746 14.7132 11.5076 14.7743 11.7215 14.9271C11.9812 15.141 12.176 15.3702 12.3059 15.6146C12.4357 15.8591 12.5007 16.1264 12.5007 16.4167C12.5007 17.2264 11.9888 17.8872 10.9652 18.399C9.94162 18.9108 8.6201 19.1667 7.00065 19.1667ZM7.02357 14.125C8.53607 13.0098 9.67426 11.8907 10.4382 10.7677C11.202 9.64483 11.584 8.5181 11.584 7.38754C11.584 5.82921 11.0875 4.65282 10.0944 3.85837C9.10135 3.06393 8.0701 2.66671 7.00065 2.66671C5.93121 2.66671 4.89996 3.06393 3.9069 3.85837C2.91385 4.65282 2.41732 5.82921 2.41732 7.38754C2.41732 8.41115 2.79162 9.47678 3.54023 10.5844C4.28885 11.6921 5.44996 12.8723 7.02357 14.125ZM7.00065 15.9813C6.81732 15.9813 6.63398 15.9507 6.45065 15.8896C6.26732 15.8285 6.09926 15.7368 5.94648 15.6146C4.14371 14.1785 2.79926 12.7768 1.91315 11.4094C1.02704 10.0421 0.583984 8.70143 0.583984 7.38754C0.583984 6.30282 0.778776 5.35178 1.16836 4.53442C1.55794 3.71705 2.05829 3.03337 2.6694 2.48337C3.28051 1.93337 3.96801 1.52087 4.7319 1.24587C5.49579 0.970874 6.25204 0.833374 7.00065 0.833374C7.74926 0.833374 8.50551 0.970874 9.2694 1.24587C10.0333 1.52087 10.7208 1.93337 11.3319 2.48337C11.943 3.03337 12.4434 3.71705 12.8329 4.53442C13.2225 5.35178 13.4173 6.30282 13.4173 7.38754C13.4173 8.70143 12.9743 10.0421 12.0882 11.4094C11.202 12.7768 9.8576 14.1785 8.05482 15.6146C7.90204 15.7368 7.73398 15.8285 7.55065 15.8896C7.36732 15.9507 7.18398 15.9813 7.00065 15.9813ZM7.00065 9.08337C7.50482 9.08337 7.93641 8.90386 8.29544 8.54483C8.65447 8.1858 8.83398 7.75421 8.83398 7.25004C8.83398 6.74587 8.65447 6.31428 8.29544 5.95525C7.93641 5.59622 7.50482 5.41671 7.00065 5.41671C6.49648 5.41671 6.06489 5.59622 5.70586 5.95525C5.34683 6.31428 5.16732 6.74587 5.16732 7.25004C5.16732 7.75421 5.34683 8.1858 5.70586 8.54483C6.06489 8.90386 6.49648 9.08337 7.00065 9.08337Z" fill="#E12B17"/>
</svg>
