<svg width="20" height="20" viewBox="0 0 20 20" fill="none" xmlns="http://www.w3.org/2000/svg">
<path d="M10.0007 19.1667C8.7326 19.1667 7.54093 18.9261 6.42565 18.4448C5.31037 17.9636 4.34023 17.3105 3.51523 16.4855C2.69023 15.6605 2.03711 14.6903 1.55586 13.575C1.07461 12.4598 0.833984 11.2681 0.833984 10C0.833984 8.73199 1.07461 7.54032 1.55586 6.42504C2.03711 5.30976 2.69023 4.33962 3.51523 3.51462C4.34023 2.68962 5.31037 2.0365 6.42565 1.55525C7.54093 1.074 8.7326 0.833374 10.0007 0.833374C11.284 0.833374 12.4795 1.074 13.5871 1.55525C14.6947 2.0365 15.6611 2.68962 16.4861 3.51462C17.3111 4.33962 17.9642 5.30594 18.4454 6.41358C18.9267 7.52122 19.1673 8.71671 19.1673 10C19.1673 10.1528 19.1635 10.3018 19.1559 10.4469C19.1482 10.5921 19.1368 10.7334 19.1215 10.8709C19.0909 11.1306 18.9802 11.3292 18.7892 11.4667C18.5982 11.6042 18.3729 11.65 18.1132 11.6042C17.8534 11.5584 17.6472 11.4285 17.4944 11.2146C17.3416 11.0007 17.2805 10.7639 17.3111 10.5042C17.3111 10.4278 17.3149 10.3438 17.3225 10.2521C17.3302 10.1605 17.334 10.0764 17.334 10C17.334 8.97643 17.1468 8.02157 16.7725 7.13546C16.3982 6.24935 15.875 5.47018 15.2027 4.79796C14.5305 4.12574 13.7513 3.60247 12.8652 3.22817C11.9791 2.85386 11.0243 2.66671 10.0007 2.66671C7.95343 2.66671 6.2194 3.37712 4.79857 4.79796C3.37773 6.21879 2.66732 7.95282 2.66732 10C2.66732 12.0473 3.37773 13.7813 4.79857 15.2021C6.2194 16.623 7.95343 17.3334 10.0007 17.3334C10.6882 17.3334 11.3489 17.2455 11.9829 17.0698C12.617 16.8941 13.2166 16.6306 13.7819 16.2792C13.9958 16.157 14.2288 16.1112 14.4809 16.1417C14.7329 16.1723 14.9277 16.2945 15.0652 16.5084C15.218 16.7223 15.2677 16.9552 15.2142 17.2073C15.1607 17.4594 15.027 17.6542 14.8132 17.7917C14.0951 18.2348 13.335 18.5747 12.5329 18.8115C11.7309 19.0483 10.8868 19.1667 10.0007 19.1667ZM16.6465 15.5C16.3257 15.5 16.0545 15.3893 15.8329 15.1677C15.6114 14.9462 15.5007 14.675 15.5007 14.3542C15.5007 14.0334 15.6114 13.7622 15.8329 13.5407C16.0545 13.3191 16.3257 13.2084 16.6465 13.2084C16.9673 13.2084 17.2385 13.3191 17.46 13.5407C17.6816 13.7622 17.7923 14.0334 17.7923 14.3542C17.7923 14.675 17.6816 14.9462 17.46 15.1677C17.2385 15.3893 16.9673 15.5 16.6465 15.5ZM10.9173 9.63337L13.6673 12.3834C13.8354 12.5514 13.9194 12.7653 13.9194 13.025C13.9194 13.2848 13.8354 13.4987 13.6673 13.6667C13.4993 13.8348 13.2854 13.9188 13.0257 13.9188C12.7659 13.9188 12.552 13.8348 12.384 13.6667L9.35898 10.6417C9.26732 10.55 9.19857 10.4469 9.15273 10.3323C9.1069 10.2177 9.08398 10.0993 9.08398 9.97712V6.33337C9.08398 6.07365 9.17183 5.85594 9.34753 5.68025C9.52322 5.50455 9.74093 5.41671 10.0007 5.41671C10.2604 5.41671 10.4781 5.50455 10.6538 5.68025C10.8295 5.85594 10.9173 6.07365 10.9173 6.33337V9.63337Z" fill="#E12B17"/>
</svg>
