<svg width="15" height="15" viewBox="0 0 15 15" fill="none" xmlns="http://www.w3.org/2000/svg">
<path d="M6.14323 11.5606C4.62934 11.5606 3.34809 11.0363 2.29948 9.98771C1.25087 8.9391 0.726562 7.65785 0.726562 6.14396C0.726562 4.63007 1.25087 3.34882 2.29948 2.30021C3.34809 1.2516 4.62934 0.727295 6.14323 0.727295C7.65712 0.727295 8.93837 1.2516 9.98698 2.30021C11.0356 3.34882 11.5599 4.63007 11.5599 6.14396C11.5599 6.75507 11.4627 7.33146 11.2682 7.87313C11.0738 8.41479 10.8099 8.89396 10.4766 9.31063L14.3099 13.144C14.4627 13.2967 14.5391 13.4912 14.5391 13.7273C14.5391 13.9634 14.4627 14.1579 14.3099 14.3106C14.1571 14.4634 13.9627 14.5398 13.7266 14.5398C13.4905 14.5398 13.296 14.4634 13.1432 14.3106L9.3099 10.4773C8.89323 10.8106 8.41406 11.0745 7.8724 11.269C7.33073 11.4634 6.75434 11.5606 6.14323 11.5606ZM6.14323 9.89396C7.1849 9.89396 8.07031 9.52938 8.79948 8.80021C9.52865 8.07105 9.89323 7.18563 9.89323 6.14396C9.89323 5.10229 9.52865 4.21688 8.79948 3.48771C8.07031 2.75854 7.1849 2.39396 6.14323 2.39396C5.10156 2.39396 4.21615 2.75854 3.48698 3.48771C2.75781 4.21688 2.39323 5.10229 2.39323 6.14396C2.39323 7.18563 2.75781 8.07105 3.48698 8.80021C4.21615 9.52938 5.10156 9.89396 6.14323 9.89396Z" fill="#E12B17"/>
</svg>
