<svg width="18" height="18" viewBox="0 0 18 18" fill="none" xmlns="http://www.w3.org/2000/svg">
<path d="M5.83398 17.3334C5.37565 17.3334 4.98329 17.1702 4.6569 16.8438C4.33051 16.5174 4.16732 16.1251 4.16732 15.6667C4.16732 15.2084 4.33051 14.8161 4.6569 14.4897C4.98329 14.1633 5.37565 14.0001 5.83398 14.0001C6.29232 14.0001 6.68468 14.1633 7.01107 14.4897C7.33746 14.8161 7.50065 15.2084 7.50065 15.6667C7.50065 16.1251 7.33746 16.5174 7.01107 16.8438C6.68468 17.1702 6.29232 17.3334 5.83398 17.3334ZM14.1673 17.3334C13.709 17.3334 13.3166 17.1702 12.9902 16.8438C12.6638 16.5174 12.5007 16.1251 12.5007 15.6667C12.5007 15.2084 12.6638 14.8161 12.9902 14.4897C13.3166 14.1633 13.709 14.0001 14.1673 14.0001C14.6257 14.0001 15.018 14.1633 15.3444 14.4897C15.6708 14.8161 15.834 15.2084 15.834 15.6667C15.834 16.1251 15.6708 16.5174 15.3444 16.8438C15.018 17.1702 14.6257 17.3334 14.1673 17.3334ZM5.12565 4.00008L7.12565 8.16675H12.959L15.2507 4.00008H5.12565ZM4.33398 2.33341H16.6257C16.9451 2.33341 17.1882 2.47578 17.3548 2.7605C17.5215 3.04522 17.5284 3.33341 17.3757 3.62508L14.4173 8.95841C14.2645 9.23619 14.0597 9.45147 13.8027 9.60425C13.5458 9.75703 13.2645 9.83341 12.959 9.83341H6.75065L5.83398 11.5001H15.834V13.1667H5.83398C5.20898 13.1667 4.73676 12.8924 4.41732 12.3438C4.09787 11.7952 4.08398 11.2501 4.37565 10.7084L5.50065 8.66675L2.50065 2.33341H0.833984V0.666748H3.54232L4.33398 2.33341Z" fill="#E12B17"/>
</svg>
