<svg width="50" height="43" viewBox="0 0 50 43" fill="none" xmlns="http://www.w3.org/2000/svg">
<g opacity="0.3" clip-path="url(#clip0_1_8916)">
<path d="M35.2011 21.0379C36.3868 21.0379 37.3516 22.0026 37.3516 23.1884C37.3516 24.3741 36.3869 25.3388 35.2011 25.3388C34.0153 25.3388 33.0506 24.3741 33.0506 23.1884C33.0507 22.0025 34.0154 21.0379 35.2011 21.0379ZM35.2011 24.0843C35.6951 24.0843 36.0973 23.6823 36.0973 23.1883C36.0973 22.6942 35.6953 22.2921 35.2011 22.2921C34.7069 22.2921 34.3049 22.6941 34.3049 23.1883C34.3049 23.6825 34.707 24.0843 35.2011 24.0843Z" fill="white"/>
<path d="M36.457 15.7483C36.457 17.5137 35.0209 18.95 33.2554 18.95C31.49 18.95 30.0537 17.5137 30.0537 15.7483C30.0537 13.9829 31.49 12.5466 33.2554 12.5466C35.0209 12.5466 36.457 13.9829 36.457 15.7483ZM31.308 15.7483C31.308 16.8221 32.1816 17.6957 33.2554 17.6957C34.3292 17.6957 35.2027 16.8221 35.2027 15.7483C35.2027 14.6745 34.3291 13.8009 33.2554 13.8009C32.1815 13.8009 31.308 14.6745 31.308 15.7483Z" fill="white"/>
<path d="M39.6413 15.5616C39.9283 15.3676 40.3181 15.4429 40.512 15.7298C40.8725 16.2628 41.4683 17.3411 41.4101 18.5747C41.3943 18.9106 41.117 19.1724 40.7842 19.1724C40.7743 19.1724 40.7643 19.1721 40.7542 19.1718C40.4082 19.1555 40.1409 18.8617 40.1573 18.5158C40.1983 17.6444 39.7463 16.8365 39.4731 16.4326C39.2792 16.1455 39.3544 15.7557 39.6413 15.5616Z" fill="white"/>
<path d="M19.8046 21.2315C18.6189 21.2315 17.6541 20.2668 17.6541 19.0811C17.6541 17.8953 18.6188 16.9306 19.8046 16.9306C20.9904 16.9306 21.9551 17.8953 21.9551 19.0811C21.955 20.2668 20.9903 21.2315 19.8046 21.2315ZM19.8046 18.1849C19.3105 18.1849 18.9084 18.5869 18.9084 19.0811C18.9084 19.5753 19.3104 19.9772 19.8046 19.9772C20.2988 19.9772 20.7008 19.5752 20.7008 19.0811C20.7008 18.587 20.2987 18.1849 19.8046 18.1849Z" fill="white"/>
<path d="M47.0718 27.9921C48.8373 27.9921 50.2734 26.5558 50.2734 24.7904C50.2734 23.025 48.8373 21.5887 47.0718 21.5887C45.3064 21.5887 43.8701 23.025 43.8701 24.7904C43.8701 26.5558 45.3064 27.9921 47.0718 27.9921ZM47.0718 22.843C48.1456 22.843 49.0191 23.7166 49.0191 24.7904C49.0191 25.8642 48.1455 26.7378 47.0718 26.7378C45.9979 26.7378 45.1244 25.8642 45.1244 24.7904C45.1244 23.7166 45.9979 22.843 47.0718 22.843Z" fill="white"/>
<path d="M41.496 32.2988C40.3103 32.2988 39.3455 31.3341 39.3455 30.1484C39.3455 28.9626 40.3102 27.9979 41.496 27.9979C42.6818 27.9979 43.6465 28.9626 43.6465 30.1484C43.6465 31.3341 42.6817 32.2988 41.496 32.2988ZM41.496 29.2522C41.0019 29.2522 40.5998 29.6542 40.5998 30.1484C40.5998 30.6426 41.0018 31.0445 41.496 31.0445C41.9902 31.0445 42.3922 30.6425 42.3922 30.1484C42.3922 29.6544 41.9902 29.2522 41.496 29.2522Z" fill="white"/>
<path d="M12.4683 20.245C14.2338 20.245 15.6699 18.8087 15.6699 17.0433C15.6699 15.2779 14.2338 13.8416 12.4683 13.8416C10.7029 13.8416 9.2666 15.2779 9.2666 17.0433C9.2666 18.8087 10.7029 20.245 12.4683 20.245ZM12.4683 15.0957C13.5421 15.0957 14.4156 15.9693 14.4156 17.0432C14.4156 18.117 13.542 18.9906 12.4683 18.9906C11.3944 18.9906 10.5209 18.117 10.5209 17.0432C10.5209 15.9693 11.3945 15.0957 12.4683 15.0957Z" fill="white"/>
<path d="M50.6144 31.2138C50.3329 31.7924 49.6969 32.8477 48.5997 33.414C48.2983 33.5713 47.9144 33.4551 47.7548 33.1443C47.5959 32.8365 47.7167 32.4582 48.0245 32.2994C48.7994 31.8995 49.2732 31.1039 49.4865 30.6652C49.6379 30.3539 50.0131 30.224 50.3249 30.3756C50.6363 30.5271 50.7659 30.9024 50.6144 31.2138Z" fill="white"/>
<path d="M38.4705 41.5215C37.2848 41.5215 36.32 40.5568 36.32 39.3711C36.32 38.1853 37.2847 37.2206 38.4705 37.2206C39.6563 37.2206 40.621 38.1853 40.621 39.3711C40.621 40.5568 39.6563 41.5215 38.4705 41.5215ZM38.4705 38.4751C37.9764 38.4751 37.5743 38.8771 37.5743 39.3713C37.5743 39.8655 37.9763 40.2673 38.4705 40.2673C38.9647 40.2673 39.3667 39.8653 39.3667 39.3713C39.3667 38.8772 38.9647 38.4751 38.4705 38.4751ZM45.9644 44.6668C47.7298 44.6668 49.166 43.2305 49.166 41.4651C49.166 39.6996 47.7298 38.2633 45.9644 38.2633C44.199 38.2633 42.7627 39.6996 42.7627 41.4651C42.7627 43.2305 44.199 44.6668 45.9644 44.6668ZM45.9644 39.5176C47.0382 39.5176 47.9117 40.3913 47.9117 41.4651C47.9117 42.5389 47.0381 43.4125 45.9644 43.4125C44.8905 43.4125 44.017 42.5389 44.017 41.4651C44.017 40.3913 44.8906 39.5176 45.9644 39.5176Z" fill="white"/>
<path d="M29.1054 43.4042C27.9197 43.4042 26.9549 42.4395 26.9549 41.2538C26.9549 40.068 27.9195 39.1033 29.1054 39.1033C30.2912 39.1033 31.2559 40.068 31.2559 41.2538C31.2559 42.4395 30.2911 43.4042 29.1054 43.4042ZM29.1054 40.3576C28.6113 40.3576 28.2092 40.7596 28.2092 41.2538C28.2092 41.748 28.6112 42.1499 29.1054 42.1499C29.5996 42.1499 30.0016 41.7479 30.0016 41.2538C30.0016 40.7598 29.5996 40.3576 29.1054 40.3576Z" fill="white"/>
<path d="M17.3375 42.6747C19.1029 42.6747 20.5391 41.2384 20.5391 39.473C20.5391 37.7076 19.1029 36.2713 17.3375 36.2713C15.572 36.2713 14.1357 37.7076 14.1357 39.473C14.1357 41.2384 15.572 42.6747 17.3375 42.6747ZM17.3375 37.5256C18.4113 37.5256 19.2848 38.3992 19.2848 39.473C19.2848 40.5468 18.4111 41.4204 17.3375 41.4204C16.2635 41.4204 15.39 40.5468 15.39 39.473C15.39 38.3992 16.2635 37.5256 17.3375 37.5256Z" fill="white"/>
<path d="M22.828 36.2092C21.6423 36.2092 20.6775 35.2445 20.6775 34.0588C20.6775 32.873 21.6422 31.9083 22.828 31.9083C24.0138 31.9083 24.9785 32.873 24.9785 34.0588C24.9784 35.2445 24.0137 36.2092 22.828 36.2092ZM22.828 33.1628C22.334 33.1628 21.9318 33.5648 21.9318 34.0589C21.9318 34.5531 22.3338 34.955 22.828 34.955C23.3222 34.955 23.7242 34.553 23.7242 34.0589C23.7242 33.5649 23.3221 33.1628 22.828 33.1628Z" fill="white"/>
<path d="M16.2815 32.143C15.5063 32.543 15.0328 33.3384 14.8197 33.7769C14.6677 34.0916 14.286 34.2168 13.9813 34.0668C13.6699 33.9153 13.5401 33.5401 13.6915 33.2286C13.9728 32.6499 14.6086 31.5947 15.7061 31.0283C16.0138 30.8695 16.3922 30.9901 16.551 31.2979C16.71 31.6059 16.5893 31.984 16.2815 32.143Z" fill="white"/>
<path d="M0.213191 16.2541C3.01467 8.90926 8.82746 3.07137 16.1607 0.237411C17.854 -0.46048 19.9336 0.587988 20.3691 2.36846L26.7017 26.002C26.8329 26.4387 26.4031 26.8884 25.9609 26.7767L21.9183 25.8857V27.8578C21.9183 28.1843 21.8537 28.4955 21.74 28.7819L31.266 31.3344L25.2115 8.73817C24.7015 6.99043 25.9577 5.04451 27.7611 4.79265C35.4863 3.51276 43.6345 5.67705 49.6975 10.6186C50.5566 11.3077 51.003 12.4439 50.8367 13.533C51.9257 13.3638 53.0638 13.8067 53.7559 14.664C58.7285 20.7244 60.916 28.8825 59.6457 36.6267C59.5044 37.5081 58.9933 38.2922 58.2432 38.7781C58.0658 38.8931 57.8781 38.9876 57.6843 39.0641C58.3758 39.9283 58.5555 41.1397 58.1531 42.1717C55.3187 49.5416 49.4597 55.3754 42.0785 58.1772C41.048 58.5745 39.8338 58.3911 38.9728 57.6958C38.5719 58.7207 37.6174 59.4812 36.5307 59.6449C28.8193 60.8751 20.7138 58.684 14.6833 53.7366C13.8261 53.0444 13.3829 51.9066 13.5524 50.8177C12.4307 50.9925 11.2885 50.4992 10.5859 49.6137C6.63068 44.7029 4.4536 38.5242 4.4536 32.2058C4.4536 30.7495 4.56786 29.2862 4.79339 27.8569C5.082 25.7367 7.4688 24.6547 9.36066 25.4646V22.7034L2.34901 20.4504C0.573047 20.0158 -0.475293 17.946 0.213191 16.2541ZM14.3825 26.8102L16.8961 27.4838V23.0629C16.8961 22.3699 16.3323 21.8061 15.6393 21.8061C14.9463 21.8061 14.3824 22.3699 14.3824 23.0629V26.8102H14.3825ZM17.0944 28.8354L14.3825 28.1088V30.3696C14.3825 31.7542 13.2561 32.8807 11.8714 32.8807C11.5761 32.8807 11.2939 32.8267 11.0306 32.7328C11.1424 37.8754 13.245 42.9537 16.8048 46.6821L30.9412 32.5458L20.9166 29.8597C20.496 30.1778 19.974 30.3688 19.4072 30.3688C18.3693 30.3687 17.4765 29.7356 17.0944 28.8354ZM47.5005 17.7601L33.3643 31.8964L52.7246 37.0841C54.3813 30.2534 52.359 22.839 47.5005 17.7601ZM33.0398 33.1081L38.2273 52.4684C44.9713 50.4877 50.3807 45.0294 52.3504 38.2823L33.0398 33.1081ZM31.8282 33.4327L17.6553 47.6054C22.7425 52.4555 30.1746 54.4112 37.0023 52.7432L31.8282 33.4327ZM32.4774 31.0095L46.6501 16.8367C41.5628 11.9866 34.1309 10.0308 27.3032 11.6989L32.4774 31.0095ZM48.9076 11.593C43.1191 6.87478 35.3374 4.80845 27.9615 6.03064C26.8712 6.18028 26.1121 7.35794 26.4228 8.41331L26.9788 10.4884C34.2348 8.70167 42.137 10.7846 47.5369 15.9499L49.3585 14.1284C49.8415 13.1558 49.6198 12.1699 48.9076 11.593ZM58.4072 36.4279C59.6198 29.0332 57.5317 21.2434 52.7839 15.4567C52.1088 14.586 50.708 14.5148 49.9488 15.3119L48.3867 16.8739C53.562 22.2641 55.7094 30.1497 53.9361 37.4085L56.0243 37.9681C57.0792 38.2744 58.2604 37.5204 58.4072 36.4279ZM41.6333 57.0046C48.6812 54.3292 54.2758 48.7587 56.9822 41.7215C57.4004 40.6983 56.7749 39.4388 55.696 39.1787L53.5606 38.6065C51.4801 45.7839 45.725 51.5859 38.552 53.6797L39.0926 55.6976C39.5673 57.1009 41.1236 57.198 41.6333 57.0046ZM15.3311 49.9296C14.5334 50.6897 14.6056 52.0892 15.4759 52.7648C21.2335 57.4885 28.9745 59.5805 36.3371 58.4056C37.4317 58.2636 38.1877 57.0781 37.8809 56.0226L37.3266 53.9537C30.0708 55.7405 22.1683 53.6576 16.7685 48.4923L15.3371 49.9238C15.3353 49.9253 15.3328 49.928 15.3311 49.9296ZM8.4153 26.5099C7.35993 26.2034 6.176 26.9585 6.03213 28.0525C5.81677 29.4174 5.70764 30.8148 5.70764 32.206C5.70764 38.2655 7.80458 44.19 11.6121 48.8885C12.2854 49.7623 13.6876 49.8356 14.449 49.0379L15.9188 47.5682C11.8907 43.3658 9.63398 37.5607 9.77396 31.7464C9.51331 31.3507 9.36054 30.8779 9.36054 30.3697V26.7633L8.4153 26.5099ZM10.1967 21.6687C10.4473 21.7574 10.6147 21.9942 10.6147 22.26V30.3696C10.6147 31.0626 11.1785 31.6264 11.8715 31.6264C12.5645 31.6264 13.1283 31.0626 13.1283 30.3696V23.0629C13.1283 21.6783 14.2548 20.5518 15.6396 20.5518C17.0243 20.5518 18.1507 21.6783 18.1507 23.0629V27.8577C18.1507 28.5507 18.7145 29.1145 19.4075 29.1145C20.1005 29.1145 20.6643 28.5507 20.6643 27.8577V25.1051C20.6544 24.7163 21.0491 24.3995 21.4264 24.4927L25.2233 25.3295L20.0364 5.97219C13.2781 8.02999 7.95547 13.391 5.94747 20.1656L10.1967 21.6687ZM1.38508 16.7011C1.03551 17.617 1.41268 18.7279 2.47017 19.1843L4.7471 19.7946C6.88192 12.6108 12.5368 6.92872 19.711 4.75903L19.1574 2.69295C18.8976 1.61313 17.6358 0.987231 16.6129 1.4073C9.61052 4.11344 4.06012 9.6878 1.38508 16.7011Z" fill="white"/>
<path d="M15.9571 10.7712C16.5983 10.7257 17.8306 10.7487 18.8698 11.4158C19.1613 11.603 19.2458 11.9909 19.0587 12.2824C18.8704 12.5763 18.4795 12.657 18.1922 12.4713C17.4581 12 16.5319 11.9879 16.0461 12.0223C15.7016 12.0481 15.4007 11.7867 15.3761 11.4412C15.3514 11.0957 15.6115 10.7957 15.9571 10.7712Z" fill="white"/>
</g>
<defs>
<clipPath id="clip0_1_8916">
<rect width="60" height="60" fill="white" transform="matrix(-1 0 0 1 60 0)"/>
</clipPath>
</defs>
</svg>
